<?xml version="1.0" encoding="UTF-8"?>
<!DOCTYPE svg PUBLIC "-//W3C//DTD SVG 1.1//EN" "http://www.w3.org/Graphics/SVG/1.1/DTD/svg11.dtd">
<!-- Creator: CorelDRAW X7 -->
<svg xmlns="http://www.w3.org/2000/svg" xml:space="preserve" width="2.3in" height="1in" version="1.1" style="shape-rendering:geometricPrecision; text-rendering:geometricPrecision; image-rendering:optimizeQuality; fill-rule:evenodd; clip-rule:evenodd"
viewBox="0 0 2300 1000"
 xmlns:xlink="http://www.w3.org/1999/xlink">
 <defs>
  <style type="text/css">
   <![CDATA[
    .fil0 {fill:none}
    .fil2 {fill:black}
    .fil1 {fill:#00CCFF}
    .fil3 {fill:black;fill-rule:nonzero}
   ]]>
  </style>
 </defs>
 <g id="Layer_x0020_1">
  <metadata id="CorelCorpID_0Corel-Layer"/>
  <rect class="fil0" width="2300" height="1000"/>
  <polygon class="fil1" points="1020,258 944,204 1380,204 1212,348 1212,278 1238,258 "/>
  <g id="_2523691498800">
   <polygon class="fil2" points="1182,569 1182,293 1124,341 1124,617 "/>
   <polygon class="fil3" points="470,258 470,331 252,331 252,407 470,407 470,478 252,478 252,618 173,618 173,258 "/>
   <path id="1" class="fil3" d="M677 372l73 0 0 239 -73 0 0 -102c0,22 -4,40 -11,54 -7,14 -15,25 -25,33 -10,8 -20,14 -30,17 -11,4 -19,5 -27,5 -8,0 -18,-1 -30,-3 -12,-2 -23,-7 -34,-14 -11,-7 -21,-18 -28,-32 -8,-15 -12,-34 -12,-58l0 -139 73 0 0 128c0,8 2,15 6,21 3,7 8,12 13,17 6,4 12,7 19,10 7,2 14,3 21,3 7,0 15,-1 22,-4 8,-2 15,-6 22,-11 6,-4 11,-10 15,-16 4,-6 6,-13 6,-20l0 -128z"/>
   <path id="2" class="fil3" d="M855 618l-79 0 0 -256 79 0 0 109c0,-24 4,-43 12,-58 7,-15 16,-27 26,-36 11,-9 22,-15 33,-18 12,-4 21,-6 29,-6 9,0 20,2 32,4 13,2 25,7 37,15 12,8 22,19 30,35 9,15 13,35 13,61l0 150 -79 0 0 -138c0,-8 -2,-16 -6,-23 -4,-7 -8,-12 -14,-17 -6,-5 -13,-9 -20,-11 -8,-3 -15,-4 -22,-4 -9,0 -17,1 -25,4 -9,3 -16,7 -23,12 -7,6 -12,11 -16,18 -5,7 -7,14 -7,21l0 138z"/>
   <path id="3" class="fil3" d="M1376 619c-21,0 -41,-3 -58,-8 -17,-6 -31,-15 -43,-26 -12,-11 -22,-25 -28,-41 -7,-17 -10,-36 -10,-57 0,-45 12,-79 36,-100 24,-22 57,-33 101,-33 44,0 79,11 103,34 25,22 38,55 38,100l0 19 -207 1c0,8 2,15 6,21 4,6 9,12 16,15 6,4 14,7 22,9 8,3 16,4 25,4 17,0 31,-3 42,-8 11,-5 17,-12 19,-21l73 0c-7,32 -21,56 -44,70 -23,14 -53,21 -91,21zm-68 -158l132 1c0,-8 -2,-14 -7,-20 -4,-5 -9,-10 -15,-14 -7,-4 -14,-7 -22,-8 -7,-2 -15,-3 -22,-3 -7,0 -15,1 -23,2 -8,2 -15,5 -21,8 -7,4 -12,8 -16,14 -4,6 -6,12 -6,20z"/>
   <path id="4" class="fil3" d="M1535 487c0,-21 4,-39 12,-56 8,-16 19,-30 32,-41 13,-11 29,-20 47,-26 18,-6 37,-8 57,-8 17,0 34,1 52,5 18,4 34,10 48,19 15,8 27,19 36,33 10,13 15,29 15,48l-79 0c-2,-6 -5,-12 -9,-16 -5,-5 -11,-9 -17,-12 -7,-3 -14,-5 -21,-7 -7,-1 -14,-2 -21,-2 -13,0 -24,2 -34,6 -9,3 -17,8 -23,13 -6,6 -11,13 -14,20 -3,8 -4,16 -4,24 0,8 1,16 4,24 3,8 7,15 13,20 6,6 14,11 23,14 10,4 21,5 34,5 7,0 14,0 21,-2 8,-1 15,-3 21,-6 7,-3 12,-7 17,-11 5,-5 8,-11 10,-17l79 0c0,19 -5,36 -15,49 -10,14 -22,25 -36,33 -15,9 -31,15 -48,18 -17,4 -33,6 -49,6 -21,0 -41,-3 -59,-9 -19,-5 -35,-14 -48,-25 -14,-11 -24,-25 -32,-42 -8,-16 -12,-35 -12,-57z"/>
   <path id="5" class="fil3" d="M1925 613l-78 0 0 -360 78 0 0 222c0,-20 3,-37 8,-52 6,-16 13,-28 22,-39 9,-10 19,-18 30,-24 11,-5 22,-8 34,-8 17,0 32,3 46,9 13,6 24,14 34,25 9,10 16,23 21,38 5,16 7,32 7,50l0 139 -78 0 0 -138c0,-7 -2,-14 -4,-21 -3,-7 -7,-13 -12,-18 -5,-6 -11,-10 -17,-14 -7,-3 -14,-5 -21,-5 -10,0 -20,2 -28,5 -9,3 -16,7 -23,12 -6,6 -11,12 -14,19 -3,7 -5,14 -5,22l0 138z"/>
  </g>
  <polygon class="fil3" points="517,796 517,739 525,739 525,796 "/>
  <polygon id="1" class="fil3" points="604,796 604,739 615,739 652,787 652,739 660,739 660,796 650,796 612,748 612,796 "/>
  <polygon id="2" class="fil3" points="739,796 739,739 749,739 786,787 786,739 794,739 794,796 784,796 747,748 747,796 "/>
  <path id="3" class="fil3" d="M902 739c10,0 18,2 23,7 5,5 8,12 8,21 0,10 -3,17 -8,22 -5,5 -13,7 -23,7 -11,0 -19,-2 -24,-7 -6,-5 -8,-12 -8,-22 0,-9 2,-16 8,-21 5,-5 13,-7 24,-7zm0 7c-8,0 -14,1 -18,5 -4,4 -6,9 -6,16 0,7 2,13 6,17 4,3 10,5 18,5 7,0 13,-2 17,-5 4,-4 6,-10 6,-17 0,-7 -2,-12 -6,-16 -4,-4 -10,-5 -17,-5z"/>
  <polygon id="4" class="fil3" points="1062,739 1036,796 1027,796 1001,739 1009,739 1031,788 1053,739 "/>
  <path id="5" class="fil3" d="M1119 796l27 -57 9 0 27 57 -9 0 -5 -13 -34 0 -6 13 -9 0zm46 -19l-14 -30 -14 30 28 0z"/>
  <polygon id="6" class="fil3" points="1269,796 1269,746 1242,746 1242,739 1304,739 1304,746 1277,746 1277,796 "/>
  <polygon id="7" class="fil3" points="1378,796 1378,739 1386,739 1386,796 "/>
  <path id="8" class="fil3" d="M1493 739c10,0 18,2 24,7 5,5 7,12 7,21 0,10 -2,17 -7,22 -6,5 -14,7 -24,7 -11,0 -19,-2 -24,-7 -5,-5 -8,-12 -8,-22 0,-9 3,-16 8,-21 5,-5 13,-7 24,-7zm0 7c-8,0 -14,1 -18,5 -4,4 -5,9 -5,16 0,7 1,13 5,17 4,3 10,5 18,5 8,0 13,-2 17,-5 4,-4 6,-10 6,-17 0,-7 -2,-12 -6,-16 -4,-4 -9,-5 -17,-5z"/>
  <polygon id="9" class="fil3" points="1600,796 1600,739 1610,739 1648,787 1648,739 1655,739 1655,796 1645,796 1608,748 1608,796 "/>
  <path id="10" class="fil3" d="M1731 754c0,-6 3,-10 7,-12 5,-2 13,-3 23,-3 1,0 3,0 4,0 2,0 4,0 6,0 2,0 3,0 5,0 2,0 3,0 4,0l0 7c-1,0 -2,0 -4,0 -2,0 -4,0 -6,-1 -2,0 -3,0 -5,0 -2,0 -3,0 -5,0 -6,0 -12,1 -15,2 -4,1 -6,4 -6,7 0,2 1,3 2,5 1,1 3,2 5,3 2,0 4,1 7,1 3,1 5,1 8,2 3,0 5,1 8,2 3,0 5,1 7,3 2,1 4,2 5,4 1,2 2,4 2,7 0,5 -3,9 -7,11 -5,3 -12,4 -21,4 -2,0 -3,0 -5,0 -2,0 -4,0 -7,0 -2,0 -4,0 -6,0 -2,0 -4,0 -5,-1l0 -6c1,0 3,0 5,0 2,0 4,0 6,0 2,1 5,1 7,1 2,0 4,0 5,0 6,0 11,-1 14,-3 4,-1 5,-3 5,-6 0,-2 0,-4 -1,-5 -2,-1 -3,-2 -5,-3 -2,0 -5,-1 -7,-1 -3,-1 -6,-1 -8,-2 -3,0 -6,-1 -8,-2 -3,0 -5,-1 -7,-3 -2,-1 -4,-2 -5,-4 -1,-2 -2,-4 -2,-7z"/>
 </g>
</svg>
