<?xml version="1.0" encoding="UTF-8"?>
<!DOCTYPE svg PUBLIC "-//W3C//DTD SVG 1.1//EN" "http://www.w3.org/Graphics/SVG/1.1/DTD/svg11.dtd">
<!-- Creator: CorelDRAW X7 -->
<svg xmlns="http://www.w3.org/2000/svg" xml:space="preserve" width="4in" height="4in" version="1.1" style="shape-rendering:geometricPrecision; text-rendering:geometricPrecision; image-rendering:optimizeQuality; fill-rule:evenodd; clip-rule:evenodd" viewBox="0 0 4000 4000" xmlns:xlink="http://www.w3.org/1999/xlink">
 <defs>
  <style type="text/css">
   <![CDATA[
    .fil0 {fill:none}
    .fil2 {fill:black}
    .fil1 {fill:#84BBDA}
    .fil4 {fill:black;fill-rule:nonzero}
    .fil3 {fill:black;fill-rule:nonzero}
   ]]>
  </style>
 </defs>
 <g id="Layer_x0020_1">
  <metadata id="CorelCorpID_0Corel-Layer"/>
  <rect class="fil0" width="4000" height="4000"/>
  <polygon class="fil1" points="1791,1610 1668,1523 2371,1523 2099,1756 2099,1642 2141,1610 "/>
  <g id="_3132385664544">
   <polygon class="fil2" points="2051,2111 2051,1666 1958,1744 1958,2188 "/>
   <polygon class="fil3" points="905,1611 905,1729 554,1729 554,1850 905,1850 905,1964 554,1964 554,2190 427,2190 427,1611 "/>
   <path id="1" class="fil3" d="M1238 1794l119 0 0 384 -119 0 0 -163c0,35 -5,63 -17,86 -11,23 -25,41 -40,54 -16,13 -32,22 -49,27 -17,6 -31,8 -43,8 -13,0 -29,-1 -48,-5 -19,-3 -38,-11 -56,-22 -18,-12 -33,-30 -45,-53 -13,-22 -19,-53 -19,-92l0 -224 119 0 0 206c0,13 2,24 8,34 5,11 13,19 22,26 9,8 19,13 30,17 11,4 22,6 33,6 12,0 25,-2 37,-7 12,-4 24,-10 34,-18 10,-7 18,-16 25,-26 6,-10 9,-20 9,-32l0 -206z"/>
   <path id="2" class="fil3" d="M1525 2190l-127 0 0 -413 127 0 0 176c0,-38 6,-69 19,-93 12,-24 26,-43 43,-58 17,-14 35,-24 53,-30 18,-5 34,-8 46,-8 14,0 32,2 52,6 20,3 40,11 59,24 19,13 36,31 49,56 14,24 20,57 20,99l0 241 -127 0 0 -221c0,-14 -3,-27 -9,-38 -6,-11 -14,-20 -23,-28 -10,-8 -21,-13 -33,-18 -12,-4 -24,-6 -35,-6 -13,0 -27,3 -40,7 -14,5 -26,11 -37,20 -11,8 -19,17 -26,28 -7,11 -11,22 -11,35l0 221z"/>
   <path id="3" class="fil3" d="M2364 2192c-34,0 -65,-5 -93,-14 -28,-9 -51,-23 -70,-41 -20,-18 -35,-40 -45,-67 -10,-26 -16,-56 -16,-91 0,-73 19,-126 58,-161 38,-36 92,-53 162,-53 72,0 127,18 167,54 40,36 60,90 60,161l0 32 -333 0c0,14 4,25 10,35 6,10 15,18 25,25 11,6 23,11 36,14 13,3 27,5 40,5 29,0 51,-4 68,-12 17,-9 28,-20 31,-33l117 0c-10,51 -34,89 -71,112 -37,23 -86,34 -146,34zm-110 -255l212 2c0,-12 -3,-23 -10,-32 -6,-9 -15,-17 -25,-23 -11,-6 -22,-10 -35,-14 -12,-3 -24,-4 -35,-4 -12,0 -24,1 -37,4 -13,3 -24,7 -35,13 -10,6 -19,13 -25,22 -6,9 -10,20 -10,32z"/>
   <path id="4" class="fil3" d="M2620 1979c0,-33 7,-63 19,-89 13,-27 30,-49 52,-67 21,-18 46,-32 75,-41 29,-10 60,-15 93,-15 27,0 54,3 83,10 28,6 54,16 78,29 23,14 42,32 58,53 15,22 23,48 23,79l-127 0c-3,-11 -8,-20 -15,-27 -8,-7 -17,-14 -28,-19 -10,-5 -21,-8 -33,-10 -11,-3 -23,-4 -34,-4 -21,0 -39,3 -54,9 -15,5 -28,12 -37,22 -10,9 -18,19 -22,32 -5,12 -7,25 -7,38 0,14 2,26 6,39 5,12 12,23 21,32 10,10 22,17 38,23 15,5 33,8 54,8 11,0 22,-1 34,-3 12,-2 23,-6 34,-11 10,-4 19,-10 27,-18 8,-7 13,-16 16,-27l127 0c0,32 -8,58 -24,80 -15,22 -35,40 -58,53 -24,14 -49,23 -77,29 -27,6 -54,9 -79,9 -34,0 -66,-5 -96,-14 -29,-9 -55,-22 -77,-40 -22,-18 -39,-41 -51,-67 -13,-27 -19,-58 -19,-93z"/>
   <path id="5" class="fil3" d="M3248 2182l-126 0 0 -579 126 0 0 356c0,-31 4,-59 13,-84 9,-24 20,-45 35,-62 14,-16 30,-29 48,-38 18,-9 36,-13 55,-13 28,0 52,4 74,14 21,9 39,22 54,40 15,17 27,38 34,62 8,25 12,51 12,81l0 223 -126 0 0 -222c0,-11 -2,-23 -7,-34 -4,-11 -10,-21 -18,-29 -8,-9 -17,-16 -28,-22 -10,-5 -22,-8 -34,-8 -16,0 -32,2 -45,7 -14,5 -26,12 -36,20 -10,9 -18,19 -23,30 -6,12 -8,23 -8,35l0 223z"/>
  </g>
  <polygon class="fil4" points="981,2476 981,2385 994,2385 994,2476 "/>
  <polygon id="1" class="fil4" points="1122,2476 1122,2385 1138,2385 1198,2461 1198,2385 1211,2385 1211,2476 1195,2476 1135,2400 1135,2476 "/>
  <polygon id="2" class="fil4" points="1338,2476 1338,2385 1354,2385 1415,2461 1415,2385 1427,2385 1427,2476 1411,2476 1351,2400 1351,2476 "/>
  <path id="3" class="fil4" d="M1600 2384c17,0 30,4 38,12 8,8 13,19 13,34 0,16 -5,27 -13,35 -8,8 -21,12 -38,12 -17,0 -30,-4 -38,-12 -9,-8 -13,-19 -13,-35 0,-15 4,-26 13,-34 8,-8 21,-12 38,-12zm0 11c-13,0 -22,3 -28,9 -7,7 -10,15 -10,26 0,12 3,20 10,27 6,6 15,9 28,9 12,0 22,-3 28,-9 6,-7 9,-15 9,-27 0,-11 -3,-19 -9,-26 -6,-6 -16,-9 -28,-9z"/>
  <polygon id="4" class="fil4" points="1858,2385 1816,2476 1802,2476 1760,2385 1774,2385 1809,2463 1844,2385 "/>
  <path id="5" class="fil4" d="M1951 2476l43 -91 14 0 43 91 -13 0 -10 -20 -54 0 -10 20 -13 0zm73 -30l-23 -49 -23 49 46 0z"/>
  <polygon id="6" class="fil4" points="2191,2476 2191,2396 2147,2396 2147,2385 2248,2385 2248,2396 2204,2396 2204,2476 "/>
  <polygon id="7" class="fil4" points="2366,2476 2366,2385 2379,2385 2379,2476 "/>
  <path id="8" class="fil4" d="M2552 2384c17,0 30,4 38,12 8,8 13,19 13,34 0,16 -5,27 -13,35 -8,8 -21,12 -38,12 -17,0 -30,-4 -38,-12 -9,-8 -13,-19 -13,-35 0,-15 4,-26 13,-34 8,-8 21,-12 38,-12zm0 11c-13,0 -22,3 -28,9 -7,7 -10,15 -10,26 0,12 3,20 10,27 6,6 15,9 28,9 12,0 22,-3 28,-9 6,-7 9,-15 9,-27 0,-11 -3,-19 -9,-26 -6,-6 -16,-9 -28,-9z"/>
  <polygon id="9" class="fil4" points="2724,2476 2724,2385 2741,2385 2801,2461 2801,2385 2814,2385 2814,2476 2797,2476 2737,2400 2737,2476 "/>
  <path id="10" class="fil4" d="M2935 2408c0,-8 4,-15 12,-18 8,-4 20,-6 37,-6 2,0 4,0 7,0 2,0 5,0 8,1 3,0 6,0 9,0 2,0 5,0 7,0l0 11c-2,0 -5,0 -8,0 -2,-1 -5,-1 -8,-1 -4,0 -6,0 -9,0 -3,0 -6,0 -8,0 -11,0 -19,1 -25,3 -5,2 -8,5 -8,11 0,3 1,5 3,7 2,2 4,4 8,5 3,1 7,2 11,3 4,1 8,2 13,3 4,0 8,1 12,3 5,1 8,2 12,4 3,2 5,4 7,7 2,3 3,7 3,11 0,8 -3,15 -11,19 -7,4 -19,6 -34,6 -2,0 -4,0 -8,0 -3,0 -6,0 -10,0 -3,-1 -7,-1 -10,-1 -4,0 -6,0 -8,0l0 -11c2,0 5,0 8,0 3,1 6,1 10,1 3,0 7,0 10,0 4,0 7,0 9,0 10,0 18,-1 23,-3 5,-3 8,-6 8,-11 0,-3 -1,-6 -3,-8 -2,-1 -4,-3 -8,-4 -3,-1 -7,-2 -11,-3 -4,-1 -8,-1 -13,-2 -4,-1 -8,-2 -13,-3 -4,-1 -7,-3 -11,-5 -3,-2 -6,-4 -8,-7 -2,-3 -3,-7 -3,-12z"/>
 </g>
</svg>
